<svg xmlns="http://www.w3.org/2000/svg" width="22" height="22" viewBox="0 0 22 22">
    <defs>
        <clipPath id="wjqoaui4ra">
            <path data-name="Rectangle 752" style="fill:#1a5632" d="M0 0h15.468v15.445H0z"/>
        </clipPath>
    </defs>
    <g data-name="Group 629">
        <g data-name="Group 598">
            <g data-name="Group 597" style="clip-path:url(#wjqoaui4ra)" transform="translate(3.381 2.967)">
                <path data-name="Path 15983" d="m163.986 2.4.524.287a2.912 2.912 0 0 1 1.159 1.16l.286.524a.194.194 0 0 0 .34 0l.286-.524a2.91 2.91 0 0 1 1.159-1.16l.524-.287a.193.193 0 0 0 0-.339l-.524-.287a2.913 2.913 0 0 1-1.158-1.157L166.3.093a.2.2 0 0 0-.339 0l-.286.524a2.912 2.912 0 0 1-1.159 1.161l-.524.287a.193.193 0 0 0 0 .339zm.71-.287A3.3 3.3 0 0 0 166.009.8l.117-.214.117.214a3.3 3.3 0 0 0 1.313 1.314l.214.117-.214.117a3.3 3.3 0 0 0-1.313 1.314l-.117.214-.117-.214a3.3 3.3 0 0 0-1.309-1.311l-.214-.117z" transform="translate(-158.228)" style="fill:#1a5632"/>
                <path data-name="Path 15984" d="m340.172 226.172-.239-.438a.194.194 0 0 0-.34 0l-.239.438a2.4 2.4 0 0 1-.955.956l-.437.239a.193.193 0 0 0 0 .339l.437.239a2.4 2.4 0 0 1 .955.956l.239.438a.194.194 0 0 0 .34 0l.239-.438a2.4 2.4 0 0 1 .955-.956l.437-.239a.193.193 0 0 0 0-.339l-.437-.239a2.4 2.4 0 0 1-.955-.956m.9 1.365-.127.07a2.785 2.785 0 0 0-1.108 1.11l-.069.127-.069-.127a2.785 2.785 0 0 0-1.108-1.11l-.128-.07.128-.07a2.785 2.785 0 0 0 1.108-1.11l.069-.127.069.127a2.785 2.785 0 0 0 1.108 1.11z" transform="translate(-326.197 -217.844)" style="fill:#1a5632"/>
                <path data-name="Path 15985" d="M177.872 389.915a.193.193 0 0 0 .193-.193v-.64h.639a.193.193 0 1 0 0-.387h-.639v-.641a.193.193 0 0 0-.387 0v.641h-.639a.193.193 0 0 0 0 .387h.639v.64a.193.193 0 0 0 .193.193" transform="translate(-170.74 -374.469)" style="fill:#1a5632"/>
                <path data-name="Path 15986" d="M389.6 370.875a.193.193 0 0 0 .193-.193v-.64h.639a.193.193 0 0 0 0-.387h-.64v-.641a.193.193 0 0 0-.387 0v.641h-.639a.193.193 0 1 0 0 .387h.639v.641a.193.193 0 0 0 .193.193z" transform="translate(-375.161 -356.087)" style="fill:#1a5632"/>
                <path data-name="Path 15987" d="M128.793 111.763h.639v.641a.193.193 0 1 0 .387 0v-.641h.64a.193.193 0 1 0 0-.387h-.64v-.641a.193.193 0 1 0-.387 0v.641h-.639a.193.193 0 1 0 0 .387" transform="translate(-124.16 -106.726)" style="fill:#1a5632"/>
                <path data-name="Path 15988" d="M1.867 41.358A1.869 1.869 0 1 0 0 39.489a1.87 1.87 0 0 0 1.867 1.869m0-3.352a1.483 1.483 0 1 1-1.48 1.483 1.483 1.483 0 0 1 1.48-1.483" transform="translate(0 -36.321)" style="fill:#1a5632"/>
                <path data-name="Path 15989" d="M309.71 158.928a1.26 1.26 0 1 0-1.26 1.261 1.262 1.262 0 0 0 1.26-1.261m-2.133 0a.873.873 0 1 1 .873.875.875.875 0 0 1-.873-.875" transform="translate(-296.584 -152.224)" style="fill:#1a5632"/>
                <path data-name="Path 15990" d="M25.073 200.351a1.4 1.4 0 1 0-1.4 1.4 1.4 1.4 0 0 0 1.4-1.4m-2.41 0a1.012 1.012 0 1 1 1.012 1.013 1.014 1.014 0 0 1-1.012-1.013" transform="translate(-21.507 -192.082)" style="fill:#1a5632"/>
                <path data-name="Path 15991" d="M10.663 28.4a2.339 2.339 0 0 0-3.2 3.379l-1.406 1.356a2.231 2.231 0 1 0 .275.272l1.408-1.356a2.326 2.326 0 0 0 2.927.068l1.059 1.071a1.852 1.852 0 1 0 .263-.284l-1.036-1.046a2.333 2.333 0 0 0 0-3.2l2.985-3.147a1.868 1.868 0 1 0-.241-.308zm-6.006 8.257a1.82 1.82 0 1 1 1.817-1.82 1.821 1.821 0 0 1-1.817 1.82zM14.665 34.3a1.463 1.463 0 1 1-1.465-1.465 1.466 1.466 0 0 1 1.465 1.465m-5.419-2.082A1.957 1.957 0 1 1 11.2 30.26a1.958 1.958 0 0 1-1.954 1.957m6.015-9.46a1.465 1.465 0 1 1-1.461 1.466 1.466 1.466 0 0 1 1.463-1.465" transform="translate(-2.368 -21.599)" style="fill:#1a5632"/>
            </g>
        </g>
        <g data-name="Rectangle 753" style="stroke:#294428;stroke-width:.5px;fill:none">
            <path style="stroke:none" d="M0 0h22v22H0z"/>
            <path style="fill:none" d="M.25.25h21.5v21.5H.25z"/>
        </g>
    </g>
</svg>
