<svg xmlns="http://www.w3.org/2000/svg" width="25" height="25" viewBox="0 0 25 25">
    <defs>
        <clipPath id="5hstjzlyya">
            <path data-name="Rectangle 758" style="fill:#e4e4e4" d="M0 0h18.83v14.155H0z"/>
        </clipPath>
    </defs>
    <g data-name="Group 631">
        <g data-name="Group 608">
            <g data-name="Rectangle 762" style="stroke:#f9fcf8;stroke-width:.5px;fill:none">
                <path style="stroke:none" d="M0 0h25v25H0z"/>
                <path style="fill:none" d="M.25.25h24.5v24.5H.25z"/>
            </g>
            <g data-name="Group 607">
                <g data-name="Group 599" style="clip-path:url(#5hstjzlyya)" transform="translate(2.98 4.7)">
                    <path data-name="Path 15992" d="M2.306 2.462 5.185.894a.267.267 0 0 1 .49-.173L8.619.192a.267.267 0 0 1 .518.019l2.829.528a.267.267 0 0 1 .49.162l2.379 1.161a.267.267 0 0 1 .43.286l1.862 1.629a.267.267 0 0 1 .315.42l1.146 2.45a.267.267 0 0 1 .04.525L17.94 9.1a.267.267 0 0 1-.235.454l-1.551 3.482-2.138 1.119-2.483-.227L9.5 12.64l-.419-1.463a.266.266 0 0 1-.221-.089l-.986.4a.267.267 0 0 1-.511.025l-3.673-.882a.267.267 0 0 1-.461-.22L.687 8.57A.267.267 0 0 1 .44 8.1L.194 6.038A.267.267 0 0 1 .3 5.517l1.611-2.708a.267.267 0 0 1 .4-.347zm1.453 5.21 3.133 1.395a.267.267 0 0 1 .125-.1l.144-1.655a.267.267 0 0 1-.192-.14l-3.207.458a.277.277 0 0 1 0 .042zm3.09 1.508L3.716 7.785a.267.267 0 0 1-.17.113l.018 2.3a.267.267 0 0 1 .164.138L6.847 9.22a.285.285 0 0 1 0-.041zm10.411-4.7h-.013a.265.265 0 0 1-.168-.059l-.565.441a.268.268 0 0 1 0 .265l1.869 1.753zM17 4.327a.268.268 0 0 1-.01-.2l-1.771-1.55.981 2.164a.267.267 0 0 1 .231.033zm1.42 3.011a.267.267 0 0 1-.12-.168l-2.794-.327A.268.268 0 0 1 15.36 7l.307 1.92a.267.267 0 0 1 .239.218l1.592.079a.267.267 0 0 1 .254-.193l.671-1.686zm-.118-.29a.264.264 0 0 1 .02-.054l-1.9-1.777a.267.267 0 0 1-.408-.281L14.5 4.164a.269.269 0 0 1-.087.071l.816 2.253a.267.267 0 0 1 .3.235l2.781.325zM17.513 9.4a.264.264 0 0 1-.021-.066L15.9 9.259a.267.267 0 0 1-.19.185l.014 1.829a.267.267 0 0 1 .051.013L17.513 9.4zm-9.9 1.754a.267.267 0 0 1 .226.125l.951-.379a.266.266 0 0 1 .051-.143L7.273 9.429a.264.264 0 0 1-.087.043l.426 1.685zm-.24.15a.268.268 0 0 1 .122-.123l-.433-1.704a.267.267 0 0 1-.185-.139l-3.1 1.106 3.6.863zm-4.044-1.067a.266.266 0 0 1 .114-.049l-.018-2.294a.268.268 0 0 1-.178-.157l-2.41.64a.26.26 0 0 1-.012.044zM.64 8.069a.268.268 0 0 1 .192.187l2.4-.638a.266.266 0 0 1 .107-.2l-.568-1.4a.267.267 0 0 1-.309-.2l-1.938.025a.267.267 0 0 1-.13.171L.64 8.069zM.477 5.62a.265.265 0 0 1 .047.1l1.935-.02a.267.267 0 0 1 .373-.18l.936-.978a.268.268 0 0 1-.021-.153l-1.5-1.471a.267.267 0 0 1-.168.014zM2.4 2.639a.266.266 0 0 1-.061.2L3.8 4.266a.267.267 0 0 1 .37-.054l2.5-1.588a.266.266 0 0 1 .06-.184L5.56 1.108a.267.267 0 0 1-.279-.037L2.4 2.639zM5.711.92a.267.267 0 0 1-.055.114L6.82 2.366a.268.268 0 0 1 .342.111l2.369-.565a.266.266 0 0 1 .09-.2L8.92.528a.267.267 0 0 1-.279-.135L5.711.92zM9.1.409a.266.266 0 0 1-.068.071l.7 1.179a.267.267 0 0 1 .336.245l1.828.477a.267.267 0 0 1 .186-.138l.042-1.1a.267.267 0 0 1-.191-.2L9.1.409zm3.268.673a.265.265 0 0 1-.127.063l-.042 1.1a.267.267 0 0 1 .178.355l1.735 1.2a.267.267 0 0 1 .44.255l1.523.773A.264.264 0 0 1 16.1 4.8l-1.035-2.278a.267.267 0 0 1-.318-.279l-2.38-1.161zm-3.047 9.86 1.578.994a.266.266 0 0 1 .211-.044l.785-1.678a.266.266 0 0 1-.1-.193l-4.421-.748a.266.266 0 0 1-.023.064l1.583 1.337a.267.267 0 0 1 .387.268zm-.1.177a.264.264 0 0 1-.031.022l.41 1.422 1.85 1.169-.382-1.312a.267.267 0 0 1-.277-.313zM11.879 4.5l2.145-.5a.266.266 0 0 1 .018-.1l-1.734-1.2a.267.267 0 0 1-.446-.2l-1.82-.475a.27.27 0 0 1-.042.062l1.58 2.266a.267.267 0 0 1 .3.142zm2.172-.38-2.145.5a.266.266 0 0 1-.006.055l3.167 1.9a.267.267 0 0 1 .046-.038l-.82-2.265a.267.267 0 0 1-.241-.157zm-2.2.663a.266.266 0 0 1-.209.1l-.62 2.3a.268.268 0 0 1 .134.115l3.838-.541a.268.268 0 0 1 .013-.078zm-.328.073a.267.267 0 0 1-.136-.159l-1.979.143a.266.266 0 0 1-.076.148l1.525 2.178a.273.273 0 0 1 .043-.007l.621-2.307zm-.144-.28a.267.267 0 0 1 .094-.164L9.907 2.16a.267.267 0 0 1-.35-.129L7.2 2.594a.266.266 0 0 1-.033.146l1.83 1.839a.267.267 0 0 1 .406.14zm-.629 2.646L9.23 5.051a.267.267 0 0 1-.33-.157l-2.54.312a.267.267 0 0 1-.087.174l.865 1.412c.023-.006-.011-.01.072-.01a.318.318 0 0 1 .266.249l3.232.243a.27.27 0 0 1 .046-.052zm5.173 4.2a.267.267 0 0 1-.109.344l.311 1.034L17.5 9.717l-1.576 1.707zm-.223.378a.266.266 0 0 1-.2-.068l-1.7.817a.267.267 0 0 1-.131.191l.372 1.26 2-1.049zm-.283-.25a.267.267 0 0 1 .188-.272l-.015-1.831a.267.267 0 0 1-.19-.147l-3.079.7a.266.266 0 0 1-.082.192l1.217 2.06a.267.267 0 0 1 .294.1l1.662-.8zm-4.2.39a.267.267 0 0 1 .1.149l1.979.317a.266.266 0 0 1 .062-.09l-1.217-2.06a.269.269 0 0 1-.135.006l-.785 1.678zm.063.348a.268.268 0 0 1-.1.094l.415 1.426 2.322.213-.364-1.246a.267.267 0 0 1-.264-.165l-2.011-.322zm4.095-3.105a.267.267 0 0 1 .17-.249l-.307-1.918a.266.266 0 0 1-.222-.152l-3.828.539a.266.266 0 0 1-.1.224L12 9.744a.267.267 0 0 1 .3.143l3.078-.7zm-3.563.717a.267.267 0 0 1 .077-.1l-.9-2.114a.267.267 0 0 1-.326-.295l-3.211-.24a.267.267 0 0 1-.17.154L7.137 8.95a.267.267 0 0 1 .235.2zM6.938 7.055a.266.266 0 0 1 .088-.2l-.864-1.417a.267.267 0 0 1-.336-.3L4.18 4.633a.268.268 0 0 1-.336 0l-.918.955a.267.267 0 0 1-.049.381c.233.535.335.868.568 1.4a.267.267 0 0 1 .285.139l3.207-.459zm-2.69-2.749a.268.268 0 0 1 .007.226l1.617.494a.266.266 0 0 1 .251-.111l.66-2.085a.269.269 0 0 1-.084-.09zm1.989.652a.268.268 0 0 1 .1.127l2.54-.312a.268.268 0 0 1 .033-.105L7.081 2.829a.267.267 0 0 1-.185.045l-.66 2.085z" transform="translate(0 .001)" style="fill:#e4e4e4"/>
                </g>
            </g>
        </g>
    </g>
</svg>
