<svg xmlns="http://www.w3.org/2000/svg" width="62.275" height="12.165" viewBox="0 0 62.275 12.165">
    <defs>
        <clipPath id="nxae6bm68a">
            <path data-name="Rectangle 546" style="fill:#1a5632" d="M0 0h62.275v12.165H0z"/>
        </clipPath>
    </defs>
    <g data-name="Group 96" style="isolation:isolate">
        <g data-name="Group 95" style="clip-path:url(#nxae6bm68a)">
            <path data-name="Path 31" d="M59.358 0H34.12c-1.663 0-2.92.894-2.92 2.08v2.895c0 1.186 1.254 2.08 2.917 2.08h8.828a1.689 1.689 0 0 1 .972.247v2.67a1.687 1.687 0 0 1-.972.247h-24.97A1.686 1.686 0 0 1 17 9.972V7.3a1.689 1.689 0 0 1 .972-.247H26.8c1.663 0 2.917-.894 2.917-2.08V2.08C29.72.894 28.466 0 26.8 0H15.719v1.945H26.8a1.686 1.686 0 0 1 .972.247v2.67a1.689 1.689 0 0 1-.972.247h-8.825c-1.663 0-2.917.894-2.917 2.08v2.895c0 .046.005.09.009.135H2.917a1.687 1.687 0 0 1-.972-.247V7.3a1.69 1.69 0 0 1 .972-.247h8.828c1.663 0 2.917-.894 2.917-2.08V2.08C14.663.894 13.408 0 11.745 0H.972v1.945h10.773a1.687 1.687 0 0 1 .972.247v2.67a1.689 1.689 0 0 1-.972.247H2.917C1.254 5.11 0 6 0 7.19v2.895c0 1.186 1.254 2.08 2.917 2.08h40.03c1.663 0 2.917-.894 2.917-2.08V7.19c0-1.186-1.254-2.08-2.917-2.08H34.12a1.689 1.689 0 0 1-.972-.247V2.192a1.686 1.686 0 0 1 .972-.247h25.238a1.687 1.687 0 0 1 .972.247v7.78a1.687 1.687 0 0 1-.972.247H50.53a1.687 1.687 0 0 1-.972-.247v-3.89h-1.946v4c0 1.186 1.254 2.08 2.917 2.08h8.828c1.663 0 2.917-.894 2.917-2.08v-8C62.275.894 61.021 0 59.358 0" style="fill:#1a5632"/>
        </g>
    </g>
</svg>
