<svg xmlns="http://www.w3.org/2000/svg" width="25" height="25" viewBox="0 0 25 25">
    <defs>
        <clipPath id="4kyq8hql9a">
            <path data-name="Rectangle 747" style="fill:none" d="M0 0h16.678v16.686H0z"/>
        </clipPath>
    </defs>
    <g data-name="Group 633">
        <g data-name="Group 624">
            <g data-name="Rectangle 756" style="stroke:#294428;fill:none">
                <path style="stroke:none" d="M0 0h25v25H0z"/>
                <path style="fill:none" d="M.5.5h24v24H.5z"/>
            </g>
            <g data-name="Group 579" style="clip-path:url(#4kyq8hql9a)" transform="translate(4.161 4.157)">
                <path data-name="Path 15959" d="M14.795 10.392a.271.271 0 0 0-.379-.052l-.027.025a.267.267 0 0 0-.025.359A7.692 7.692 0 1 1 12.843 9.2a.266.266 0 0 0 .35-.025l.027-.027a.271.271 0 0 0-.04-.375 8.222 8.222 0 1 0 1.614 1.615z" transform="translate(0 -6.894)" style="fill:#1b5733"/>
                <path data-name="Path 15960" d="M82.887 82.127a.368.368 0 0 0 .034-.04.271.271 0 0 0-.072-.375 5.875 5.875 0 1 0 2.459 3.755 5.779 5.779 0 0 0-.881-2.153.267.267 0 0 0-.373-.074.223.223 0 0 0-.04.032.269.269 0 0 0-.034.341 5.33 5.33 0 0 1-2.433 7.9 5.328 5.328 0 1 1 .995-9.345.269.269 0 0 0 .345-.038z" transform="translate(-71.322 -78.112)" style="fill:#1b5733"/>
                <path data-name="Path 15961" d="M156.149 161.482a2.747 2.747 0 0 1 2.115.059.267.267 0 0 0 .294-.052.263.263 0 0 0 .061-.084.267.267 0 0 0-.136-.359 3.3 3.3 0 1 0 1.738 1.835.269.269 0 0 0-.348-.156.261.261 0 0 0-.088.056.267.267 0 0 0-.066.292 2.765 2.765 0 1 1-3.57-1.595z" transform="translate(-148.913 -155.611)" style="fill:#1b5733"/>
                <path data-name="Path 15962" d="M244.044 1.216h-.567l.757-.757a.269.269 0 0 0-.38-.38l-.754.757V.269a.269.269 0 0 0-.538 0v1.105l-6.44 6.426a.694.694 0 1 0-.262 1.338.666.666 0 0 0 .248-.047.7.7 0 0 0 .4-.9v-.007l6.429-6.429h1.105a.269.269 0 0 0 0-.538z" transform="translate(-227.635)" style="fill:#1b5733"/>
            </g>
        </g>
    </g>
</svg>
