<svg xmlns="http://www.w3.org/2000/svg" width="25.013" height="25.013" viewBox="0 0 25.013 25.013">
    <defs>
        <clipPath id="62kgmre0xa">
            <path data-name="Rectangle 713" style="fill:none" d="M0 0h25.013v25.013H0z"/>
        </clipPath>
    </defs>
    <g data-name="Group 630">
        <g data-name="Group 536" style="clip-path:url(#62kgmre0xa)">
            <path data-name="Path 15916" d="M19.3 9.866q-3.941-.014-7.884 0A2.977 2.977 0 0 0 8.4 12.852c.007.352 0 .7 0 1.055v5.574c0 .2 0 .4.01.6a1.786 1.786 0 0 0 1.142 1.631 3.979 3.979 0 0 0 1.618.295h8.439a3.855 3.855 0 0 0 1.518-.288 1.814 1.814 0 0 0 1.16-1.622c.008-.083.008-.167.008-.251 0-2.327-.007-4.654 0-6.98a2.99 2.99 0 0 0-3-3m-7.91.569c1.709.025 3.418.006 5.126.006.939 0 1.877.014 2.815 0a2.42 2.42 0 0 1 2.294 1.71 2.675 2.675 0 0 1 .081 1.1 2.258 2.258 0 0 1-.265.034H9.006a2.439 2.439 0 0 1 2.38-2.849m9.108 10.888a3.994 3.994 0 0 1-.594.091c-.3.02-.6.026-.9.027h-7.286a8 8 0 0 1-1-.036 4.05 4.05 0 0 1-.922-.221 1.187 1.187 0 0 1-.791-1.017 4.106 4.106 0 0 1-.038-.5c0-1.507.055-3.015.058-4.522V13.9a2.137 2.137 0 0 1 .264-.039c2.5-.069 11.943-.031 12.4.049l.047 4.306.007 1.591a1.39 1.39 0 0 1-1.235 1.517" transform="translate(-2.844 -3.428)" style="fill:#2a4923"/>
            <path data-name="Path 15917" d="M20.542 17.844h-.282a8.934 8.934 0 0 0-3.576.754 2.849 2.849 0 0 0-1.547 1.893 2.64 2.64 0 0 0 .432 2.221.317.317 0 0 1-.028.26 5.129 5.129 0 0 1-.359.38c-.1.1-.2.195-.288.3a.3.3 0 0 0-.049.213.62.62 0 0 1 0 .075l-.01.1.1-.015a.571.571 0 0 1 .065-.011.32.32 0 0 0 .2-.056 6.975 6.975 0 0 0 .622-.62c.118-.135.2-.143.359-.034a2.7 2.7 0 0 0 3.974-.973 8.563 8.563 0 0 0 .844-3.7v-.043c.023-.4.032-.572-.06-.668s-.2-.079-.406-.074m-.013.946-.166 1.593-1.354-.07zm-3.061-.017c.133-.044.268-.083.434-.129l.189-.054V20.367a.241.241 0 0 1-.068.137c-.289.3-.582.594-.874.89l-.232.235-.061-.013v-.555c0-.456.005-.929-.005-1.392v-.036c-.016-.646-.016-.646.619-.857m-.244 3.164-.006-.012.247-.242c.285-.279.579-.567.876-.842a.4.4 0 0 1 .246-.068c.415-.007.831 0 1.283 0h.4l-.092.255a30.1 30.1 0 0 1-.347.937.2.2 0 0 1-.129.062c-.673-.019-1.347-.044-2.02-.069zm2.216.472a2.162 2.162 0 0 1-1.58.915 1.822 1.822 0 0 1-1.5-.49.922.922 0 0 1 .9-.439c.54.036 1.092.028 1.625.02l.549-.006m-.966-3.926 1.739-.185a.223.223 0 0 1-.023.032l-1.419 1.416-.229.228zm-2.025 3.056c0 .579 0 .6-.448.956a2.061 2.061 0 0 1-.453-1.674 2.218 2.218 0 0 1 .9-1.484v2.2" transform="translate(-5.422 -6.628)" style="fill:#2a4923"/>
        </g>
        <g data-name="Rectangle 755" style="stroke:#294428;stroke-width:.5px;fill:none">
            <path style="stroke:none" d="M0 0h22v22H0z" transform="translate(1.408 1.674)"/>
            <path style="fill:none" d="M.25.25h21.5v21.5H.25z" transform="translate(1.408 1.674)"/>
        </g>
    </g>
</svg>
