<svg xmlns="http://www.w3.org/2000/svg" width="25" height="25" viewBox="0 0 25 25">
    <defs>
        <clipPath id="o10o5k7q8a">
            <path data-name="Rectangle 674" style="stroke:#15492a;stroke-width:.6px;fill:none" d="M0 0h22.644v21.671H0z"/>
        </clipPath>
    </defs>
    <g data-name="Group 634">
        <g data-name="Group 611">
            <g data-name="Rectangle 763" style="stroke:#2e5435;fill:none">
                <path style="stroke:none" d="M0 0h25v25H0z"/>
                <path style="fill:none" d="M.5.5h24v24H.5z"/>
            </g>
            <g data-name="Group 610">
                <g data-name="Group 482" transform="translate(1.227 2.146)" style="clip-path:url(#o10o5k7q8a)">
                    <path data-name="Path 15803" d="M.865 6.772v-.361l.061-.421.246-.782.369-.721.492-.661.615-.661.738-.6.861-.481.922-.484A19.242 19.242 0 0 1 12.016.36a19.436 19.436 0 0 1 6.867 1.24l.922.421.8.541.738.6.615.6.492.661.369.721.246.782.123.361v.421" transform="translate(-.681 -.285)" style="stroke-linecap:round;stroke-linejoin:round;stroke:#15492a;stroke-width:.6px;fill:none"/>
                    <path data-name="Line 243" transform="translate(22.506 6.426)" style="stroke-linecap:round;stroke-linejoin:round;stroke:#15492a;stroke-width:.6px;fill:none" d="M.061 1.744 0 0"/>
                    <path data-name="Line 244" transform="translate(.123 6.426)" style="stroke-linecap:round;stroke-linejoin:round;stroke:#15492a;stroke-width:.6px;fill:none" d="M.061 0 0 1.744"/>
                    <path data-name="Path 15804" d="M18.5 23.7v-.241l.061-.24.246-.541.369-.541.492-.481.676-.481.8-.361.922-.361 1.045-.3 1.045-.181 1.107-.06 1.107-.06 1.107.12 1.107.181.984.24.922.361.861.361.431.3.431.3.369.3.246.361.246.3.123.361.123.3" transform="translate(-14.565 -15.726)" style="stroke-linecap:round;stroke-linejoin:round;stroke:#15492a;stroke-width:.6px;fill:none"/>
                    <path data-name="Line 245" transform="translate(22.568 8.471)" style="stroke-linecap:round;stroke-linejoin:round;stroke:#15492a;stroke-width:.6px;fill:none" d="M0 .481V0"/>
                    <path data-name="Line 246" transform="translate(2.029 12.499)" style="stroke-linecap:round;stroke-linejoin:round;stroke:#15492a;stroke-width:.6px;fill:none" d="m0 0 .061 1.761"/>
                    <path data-name="Line 247" transform="translate(20.6 12.5)" style="stroke-linecap:round;stroke-linejoin:round;stroke:#15492a;stroke-width:.6px;fill:none" d="M0 1.761.061 0"/>
                    <path data-name="Line 248" transform="translate(4.673 13.281)" style="stroke-linecap:round;stroke-linejoin:round;stroke:#15492a;stroke-width:.6px;fill:none" d="M0 0v.722"/>
                    <path data-name="Line 249" transform="translate(.123 8.471)" style="stroke-linecap:round;stroke-linejoin:round;stroke:#15492a;stroke-width:.6px;fill:none" d="M0 0v.481"/>
                    <path data-name="Path 15805" d="m9.827 68.565.061 1.082.246 1.022.369 1.022.246.481.246.481" transform="translate(-7.737 -54.305)" style="stroke-linecap:round;stroke-linejoin:round;stroke:#15492a;stroke-width:.6px;fill:none"/>
                    <path data-name="Path 15806" d="m91.067 72.654.553-.962.369-.962.184-1.082.061-.541.061-.541" transform="translate(-71.696 -54.305)" style="stroke-linecap:round;stroke-linejoin:round;stroke:#15492a;stroke-width:.6px;fill:none"/>
                    <path data-name="Line 250" transform="translate(.184 6.426)" style="stroke-linecap:round;stroke-linejoin:round;stroke:#15492a;stroke-width:.6px;fill:none" d="M0 .06V0"/>
                    <path data-name="Line 251" transform="translate(22.506 6.426)" style="stroke-linecap:round;stroke-linejoin:round;stroke:#15492a;stroke-width:.6px;fill:none" d="M0 0h0"/>
                    <path data-name="Path 15807" d="m16.188 43.852.8.421.861.361.984.3.984.3 1.045.181 1.045.18 1.107.06 1.045.06 1.107-.06 1.107-.06 1.045-.18 1.045-.181.984-.3.984-.3.861-.361.8-.421.738-.481.676-.481.553-.541.492-.541.369-.6.246-.6.184-.6.061-.661v-.06" transform="translate(-12.745 -31.112)" style="stroke-linecap:round;stroke-linejoin:round;stroke:#15492a;stroke-width:.6px;fill:none"/>
                    <path data-name="Path 15808" d="M.36 39.069a5.448 5.448 0 0 0 3.293 4.568" transform="translate(-.283 -30.943)" style="stroke-linecap:round;stroke-linejoin:round;stroke:#15492a;stroke-width:.6px;fill:none"/>
                    <path data-name="Path 15809" d="M90.359 47.359a5.45 5.45 0 0 0 3.265-4.489" transform="translate(-71.139 -33.954)" style="stroke-linecap:round;stroke-linejoin:round;stroke:#15492a;stroke-width:.6px;fill:none"/>
                    <path data-name="Path 15810" d="M22.323 64.969a17.791 17.791 0 0 0 14.508-.644" transform="translate(-17.575 -50.946)" style="stroke-linecap:round;stroke-linejoin:round;stroke:#15492a;stroke-width:.6px;fill:none"/>
                    <path data-name="Path 15811" d="m21.97 64.145.061.06v.661" transform="translate(-17.297 -50.804)" style="stroke-linecap:round;stroke-linejoin:round;stroke:#15492a;stroke-width:.6px;fill:none"/>
                    <path data-name="Path 15812" d="M.61 39.255a4.876 4.876 0 0 0 2.14 3.757" transform="translate(-.48 -31.091)" style="stroke-linecap:round;stroke-linejoin:round;stroke:#15492a;stroke-width:.6px;fill:none"/>
                    <path data-name="Line 252" transform="translate(4.673 14.003)" style="stroke-linecap:round;stroke-linejoin:round;stroke:#15492a;stroke-width:.6px;fill:none" d="M.061.06 0 0"/>
                    <path data-name="Path 15813" d="m15.6 60.891-1.722-1.022v-.06" transform="translate(-10.924 -47.369)" style="stroke-linecap:round;stroke-linejoin:round;stroke:#15492a;stroke-width:.6px;fill:none"/>
                    <path data-name="Path 15814" d="m11.371 58.037-.369.18-.123.06-.184-.06V57.5" transform="translate(-8.42 -45.538)" style="stroke-linecap:round;stroke-linejoin:round;stroke:#15492a;stroke-width:.6px;fill:none"/>
                    <path data-name="Path 15815" d="M.61 42.724a4.875 4.875 0 0 0 2.141 3.757" transform="translate(-.48 -33.838)" style="stroke-linecap:round;stroke-linejoin:round;stroke:#15492a;stroke-width:.6px;fill:none"/>
                    <path data-name="Path 15816" d="m21.614 2.351.492.3.738.421.615.481.553.541.431.541.307.541.246.6.123.6.061.6-.061.541-.184.6-.308.6-.431.541-.43.541-.615.481-.677.481-.738.421-.8.361-.922.3-.922.3-.984.241-.984.12-1.045.12-1.045.06h-1.045l-1.045-.12-1.045-.12-.984-.18-.984-.241-.922-.3-.861-.361-.738-.421-.738-.421-.615-.481-.557-.532-.431-.541-.369-.542-.185-.6-.184-.6V6.68l.061-.6.184-.6.308-.6.369-.541.492-.541.615-.481.676-.481.738-.421.123-.06a16.824 16.824 0 0 1 6.832-1.275 17.29 17.29 0 0 1 6.885 1.271z" transform="translate(-3.412 -.855)" style="stroke-linecap:round;stroke-linejoin:round;stroke:#15492a;stroke-width:.6px;fill:none"/>
                    <path data-name="Path 15817" d="M23.187 30.9v.12l-.061.6-.123.6-.308.6-.369.6-.43.541-.615.541-.615.481-.738.481-.8.421-.922.361-.922.3-.984.3-1.045.18-1.045.18-1.107.06-1.103.066-1.045-.06-1.107-.06-1.048-.181-1.045-.18-.984-.3-.922-.3-.922-.361-.8-.421-.738-.481-.677-.481-.553-.541-.431-.541-.369-.6-.307-.6-.123-.6-.061-.6v-.06" transform="translate(-.681 -24.472)" style="stroke-linecap:round;stroke-linejoin:round;stroke:#15492a;stroke-width:.6px;fill:none"/>
                    <path data-name="Path 15818" d="m29.87 9.6.246.241.43.481.308.481.184.541.062.541v.541l-.123.481-.184.541-.369.481-.431.481-.492.421-.615.421-.676.361-.738.3-.8.3-.861.18-.922.18-.922.06-.922.06h-.922l-.922-.12-.922-.12-.861-.24-.8-.241-.738-.3-.738-.361-.615-.361-.553-.421-.431-.481-.369-.481-.246-.541-.128-.476-.061-.541.061-.541.184-.481.308-.541.369-.481.369-.361s1.4-1.872 6.913-1.872c4.908 0 6.927 1.868 6.927 1.868z" transform="translate(-11.607 -6.124)" style="stroke-linecap:round;stroke-linejoin:round;stroke:#15492a;stroke-width:.6px;fill:none"/>
                    <path data-name="Path 15819" d="M9.827 68.565v.12l.061.6.246.541.246.541.431.541.492.481.553.421.676.421.738.421.8.3.922.3.922.181.922.18.984.12.984.06 1.045-.06.984-.06.984-.12.922-.181.861-.24.861-.361.8-.3.676-.421.676-.421.492-.481.492-.541.307-.541.246-.541.123-.541.061-.421" transform="translate(-7.737 -54.305)" style="stroke-linecap:round;stroke-linejoin:round;stroke:#15492a;stroke-width:.6px;fill:none"/>
                    <path data-name="Path 15820" d="M12.2 58.652v.18l-.061.3" transform="translate(-9.558 -46.453)" style="stroke-linecap:round;stroke-linejoin:round;stroke:#15492a;stroke-width:.6px;fill:none"/>
                    <path data-name="Path 15821" d="M15.255 87.951a5.519 5.519 0 0 0 2.016 1.81" transform="translate(-12.01 -69.658)" style="stroke-linecap:round;stroke-linejoin:round;stroke:#15492a;stroke-width:.6px;fill:none"/>
                    <path data-name="Path 15822" d="m38.943 88.224-.308.481-.492.481-.553.481-.615.361-.738.361-.8.361-.8.24-.922.18-.922.181-.922.06-.984.06-.922-.06-.922-.06-.922-.181-.922-.18-.861-.24-.738-.361-.738-.361" transform="translate(-19.573 -69.875)" style="stroke-linecap:round;stroke-linejoin:round;stroke:#15492a;stroke-width:.6px;fill:none"/>
                </g>
            </g>
        </g>
    </g>
</svg>
