<svg xmlns="http://www.w3.org/2000/svg" width="25" height="25" viewBox="0 0 25 25">
    <defs>
        <clipPath id="j5q3tj3mia">
            <path data-name="Rectangle 751" style="fill:#1a5632" d="M0 0h19.121v19.125H0z"/>
        </clipPath>
    </defs>
    <g data-name="Group 627">
        <g data-name="Rectangle 759" style="stroke:#1a5632;stroke-width:.5px;fill:none">
            <path style="stroke:none" d="M0 0h25v25H0z"/>
            <path style="fill:none" d="M.25.25h24.5v24.5H.25z"/>
        </g>
        <g data-name="Group 596">
            <g data-name="Group 595" style="clip-path:url(#j5q3tj3mia)" transform="translate(3.058 3.057)">
                <path data-name="Path 15979" d="M2.106 12.293a7.21 7.21 0 0 0 9.151.855l5.586 5.586a1.334 1.334 0 1 0 1.887-1.887l-5.585-5.585A7.2 7.2 0 0 0 7.2 0a7.2 7.2 0 0 0-5.094 12.293zm16.417 4.762a1.04 1.04 0 1 1-1.471 1.471L11.5 12.975a7.219 7.219 0 0 0 .789-.682 7.309 7.309 0 0 0 .683-.788zM2.314 2.317A6.907 6.907 0 1 1 .291 7.2a6.862 6.862 0 0 1 2.023-4.883z" style="fill:#1a5632"/>
                <path data-name="Path 15980" d="M44.744 52.939a5.73 5.73 0 1 0 0-8.1 5.712 5.712 0 0 0 0 8.1zm.208-7.9a5.436 5.436 0 1 1 0 7.687 5.419 5.419 0 0 1 0-7.687z" transform="translate(-41.598 -41.686)" style="fill:#1a5632"/>
                <path data-name="Path 15981" d="M88.011 151.8a5.329 5.329 0 0 0 8.316 0 .147.147 0 0 0 0-.192 5.464 5.464 0 0 0-4.158-2 5.465 5.465 0 0 0-4.158 2 .147.147 0 0 0 0 .192m8.009-.1a5.367 5.367 0 0 1-2.522 1.613 2.088 2.088 0 0 0 0-3.226 5.367 5.367 0 0 1 2.522 1.622zm-3.851-1.8a1.8 1.8 0 1 1-1.8 1.8 1.8 1.8 0 0 1 1.8-1.8m-1.329.184a2.088 2.088 0 0 0 0 3.226 5.368 5.368 0 0 1-2.522-1.613 5.369 5.369 0 0 1 2.522-1.597z" transform="translate(-84.971 -144.507)" style="fill:#1a5632"/>
                <path data-name="Path 15982" d="M187.958 188.857a.807.807 0 1 0-.807-.807.808.808 0 0 0 .807.807m0-1.319a.513.513 0 1 1-.513.513.513.513 0 0 1 .513-.513" transform="translate(-180.76 -180.848)" style="fill:#1a5632"/>
            </g>
        </g>
    </g>
</svg>
