<svg xmlns="http://www.w3.org/2000/svg" width="25" height="25" viewBox="0 0 25 25">
    <defs>
        <clipPath id="5fdhs765ya">
            <path data-name="Rectangle 749" style="fill:#e8ede8" d="M0 0h7.86v19.852H0z"/>
        </clipPath>
    </defs>
    <g data-name="Group 626">
        <g data-name="Group 584" style="clip-path:url(#5fdhs765ya)" transform="translate(8.57 1.973)">
            <path data-name="Path 15965" d="M4.87 4.225a1.476 1.476 0 0 0 1.74-.158 1.886 1.886 0 0 0 .6-1.02L7.833.828A.7.7 0 0 0 7.7.186a.5.5 0 0 0-.565-.154L5.2.748 5.19.75a1.619 1.619 0 0 0-.722.482 2.037 2.037 0 0 0-.478 1.435 2.029 2.029 0 0 0 .42 1.145l-.636 1.011-.747-.861a1.392 1.392 0 0 0 .123-.5 1.32 1.32 0 0 0-.312-.935 1.045 1.045 0 0 0-.47-.315L1.254 1.8a.4.4 0 0 0-.449.123.555.555 0 0 0-.105.514L1.047 3.7a1.234 1.234 0 0 0 .4.676.963.963 0 0 0 1.18.074l.9 1.031v1.531H.813a.338.338 0 0 0 0 .669h.333v.669A1.611 1.611 0 0 0 0 9.964v8.241a1.555 1.555 0 0 0 1.439 1.647H6.1a1.555 1.555 0 0 0 1.439-1.647V9.964A1.6 1.6 0 0 0 6.37 8.346v-.662h.172a.338.338 0 0 0 0-.669H4.1V5.448zm.917 3.459v.634h-.466a.338.338 0 0 0 0 .669h.634a.2.2 0 0 0 .062-.009.28.28 0 0 0 .062.009h.025a.923.923 0 0 1 .854.977V18.2a.923.923 0 0 1-.854.977H1.441a.923.923 0 0 1-.854-.977V9.964a.923.923 0 0 1 .854-.977H2.77a.338.338 0 0 0 0-.669H1.734v-.634h1.781v7.263a.23.23 0 0 0 0 .051v2.363a.315.315 0 0 0 .292.335.315.315 0 0 0 .292-.335v-1.575l.595.681a.267.267 0 0 0 .414 0 .367.367 0 0 0 0-.473L4.1 14.84V7.684zM4.88 1.708a1.03 1.03 0 0 1 .447-.3.152.152 0 0 0 .029-.008l1.9-.7-.607 2.164a1.221 1.221 0 0 1-.394.669.958.958 0 0 1-1.283-.02 1.261 1.261 0 0 1-.4-.881 1.33 1.33 0 0 1 .31-.924zM1.793 3.839a.575.575 0 0 1-.185-.326l-.273-.977.864.319.023.007a.477.477 0 0 1 .2.138.6.6 0 0 1 .14.424.575.575 0 0 1-.185.4.431.431 0 0 1-.585.011z" style="fill:#e8ede8"/>
            <path data-name="Path 15966" d="M37.26 296.694a.315.315 0 0 0-.292.335v4.519a.3.3 0 1 0 .585 0v-4.519a.315.315 0 0 0-.293-.335" transform="translate(-35.68 -284.871)" style="fill:#e8ede8"/>
        </g>
        <g data-name="Rectangle 757" style="stroke:#f9fcf8;fill:none">
            <path style="stroke:none" d="M0 0h25v25H0z"/>
            <path style="fill:none" d="M.5.5h24v24H.5z"/>
        </g>
    </g>
</svg>
